<svg width="211" height="81" viewBox="0 0 211 81" fill="none" xmlns="http://www.w3.org/2000/svg">
<g filter="url(#filter0_d_94_171)">
<path d="M58.6503 58.125C54.3503 58.125 50.3753 57.45 46.7253 56.1C43.1253 54.75 40.0253 52.825 37.4253 50.325C34.8253 47.825 32.8003 44.8 31.3503 41.25C29.9003 37.7 29.1753 33.7 29.1753 29.25C29.1753 24.8 29.9003 20.8 31.3503 17.25C32.8003 13.7 34.8253 10.675 37.4253 8.175C40.0253 5.675 43.1253 3.75 46.7253 2.4C50.3753 1.05 54.3503 0.374996 58.6503 0.374996C62.9503 0.374996 66.9003 1.05 70.5003 2.4C74.1503 3.75 77.2753 5.675 79.8753 8.175C82.4753 10.675 84.5003 13.7 85.9503 17.25C87.4003 20.8 88.1253 24.8 88.1253 29.25C88.1253 33.7 87.4003 37.7 85.9503 41.25C84.5003 44.8 82.4753 47.825 79.8753 50.325C77.2753 52.825 74.1503 54.75 70.5003 56.1C66.9003 57.45 62.9503 58.125 58.6503 58.125ZM58.6503 48.975C61.2003 48.975 63.5753 48.525 65.7753 47.625C68.0253 46.675 69.9753 45.35 71.6253 43.65C73.2753 41.9 74.5503 39.825 75.4503 37.425C76.4003 34.975 76.8753 32.25 76.8753 29.25C76.8753 26.25 76.4003 23.55 75.4503 21.15C74.5503 18.7 73.2753 16.625 71.6253 14.925C69.9753 13.175 68.0253 11.85 65.7753 10.95C63.5753 10 61.2003 9.525 58.6503 9.525C56.1003 9.525 53.7003 10 51.4503 10.95C49.2503 11.85 47.3253 13.175 45.6753 14.925C44.0253 16.625 42.7253 18.7 41.7753 21.15C40.8753 23.55 40.4253 26.25 40.4253 29.25C40.4253 32.25 40.8753 34.975 41.7753 37.425C42.7253 39.825 44.0253 41.9 45.6753 43.65C47.3253 45.35 49.2503 46.675 51.4503 47.625C53.7003 48.525 56.1003 48.975 58.6503 48.975ZM129.431 1.5C130.731 1.5 131.756 1.9 132.506 2.7C133.306 3.5 133.706 4.6 133.706 6C133.706 7.35 133.306 8.45 132.506 9.3C131.756 10.1 130.731 10.5 129.431 10.5H108.806V25.575H126.731C128.031 25.575 129.056 25.975 129.806 26.775C130.606 27.575 131.006 28.675 131.006 30.075C131.006 31.425 130.606 32.525 129.806 33.375C129.056 34.175 128.031 34.575 126.731 34.575H108.806V53.85C108.806 55.1 108.281 56.075 107.231 56.775C106.231 57.425 104.881 57.75 103.181 57.75C101.481 57.75 100.106 57.4 99.056 56.7C98.056 56 97.556 55 97.556 53.7V7.875C97.556 3.625 99.681 1.5 103.931 1.5H129.431ZM172.79 1.5C174.09 1.5 175.115 1.9 175.865 2.7C176.665 3.5 177.065 4.6 177.065 6C177.065 7.35 176.665 8.45 175.865 9.3C175.115 10.1 174.09 10.5 172.79 10.5H152.165V25.575H170.09C171.39 25.575 172.415 25.975 173.165 26.775C173.965 27.575 174.365 28.675 174.365 30.075C174.365 31.425 173.965 32.525 173.165 33.375C172.415 34.175 171.39 34.575 170.09 34.575H152.165V53.85C152.165 55.1 151.64 56.075 150.59 56.775C149.59 57.425 148.24 57.75 146.54 57.75C144.84 57.75 143.465 57.4 142.415 56.7C141.415 56 140.915 55 140.915 53.7V7.875C140.915 3.625 143.04 1.5 147.29 1.5H172.79Z" fill="url(#paint0_linear_94_171)" shape-rendering="crispEdges"/>
</g>
<path d="M41.7007 77.225C40.8407 77.225 40.0457 77.09 39.3157 76.82C38.5957 76.55 37.9757 76.165 37.4557 75.665C36.9357 75.165 36.5307 74.56 36.2407 73.85C35.9507 73.14 35.8057 72.34 35.8057 71.45C35.8057 70.56 35.9507 69.76 36.2407 69.05C36.5307 68.34 36.9357 67.735 37.4557 67.235C37.9757 66.735 38.5957 66.35 39.3157 66.08C40.0457 65.81 40.8407 65.675 41.7007 65.675C42.5607 65.675 43.3507 65.81 44.0707 66.08C44.8007 66.35 45.4257 66.735 45.9457 67.235C46.4657 67.735 46.8707 68.34 47.1607 69.05C47.4507 69.76 47.5957 70.56 47.5957 71.45C47.5957 72.34 47.4507 73.14 47.1607 73.85C46.8707 74.56 46.4657 75.165 45.9457 75.665C45.4257 76.165 44.8007 76.55 44.0707 76.82C43.3507 77.09 42.5607 77.225 41.7007 77.225ZM41.7007 75.395C42.2107 75.395 42.6857 75.305 43.1257 75.125C43.5757 74.935 43.9657 74.67 44.2957 74.33C44.6257 73.98 44.8807 73.565 45.0607 73.085C45.2507 72.595 45.3457 72.05 45.3457 71.45C45.3457 70.85 45.2507 70.31 45.0607 69.83C44.8807 69.34 44.6257 68.925 44.2957 68.585C43.9657 68.235 43.5757 67.97 43.1257 67.79C42.6857 67.6 42.2107 67.505 41.7007 67.505C41.1907 67.505 40.7107 67.6 40.2607 67.79C39.8207 67.97 39.4357 68.235 39.1057 68.585C38.7757 68.925 38.5157 69.34 38.3257 69.83C38.1457 70.31 38.0557 70.85 38.0557 71.45C38.0557 72.05 38.1457 72.595 38.3257 73.085C38.5157 73.565 38.7757 73.98 39.1057 74.33C39.4357 74.67 39.8207 74.935 40.2607 75.125C40.7107 75.305 41.1907 75.395 41.7007 75.395ZM56.9218 76.37C56.9218 76.62 56.8168 76.815 56.6068 76.955C56.4068 77.085 56.1368 77.15 55.7968 77.15C55.4568 77.15 55.1818 77.085 54.9718 76.955C54.7718 76.815 54.6718 76.62 54.6718 76.37V76.25C54.4718 76.55 54.1818 76.79 53.8018 76.97C53.4218 77.14 52.9818 77.225 52.4818 77.225C51.3718 77.225 50.5518 76.965 50.0218 76.445C49.5018 75.915 49.2418 75.175 49.2418 74.225V69.53C49.2418 69.28 49.3418 69.09 49.5418 68.96C49.7518 68.82 50.0268 68.75 50.3668 68.75C50.7068 68.75 50.9768 68.82 51.1768 68.96C51.3868 69.09 51.4918 69.28 51.4918 69.53V74.015C51.4918 74.445 51.6268 74.79 51.8968 75.05C52.1768 75.3 52.5718 75.425 53.0818 75.425C53.5918 75.425 53.9818 75.3 54.2518 75.05C54.5318 74.79 54.6718 74.445 54.6718 74.015V69.53C54.6718 69.28 54.7718 69.09 54.9718 68.96C55.1818 68.82 55.4568 68.75 55.7968 68.75C56.1368 68.75 56.4068 68.82 56.6068 68.96C56.8168 69.09 56.9218 69.28 56.9218 69.53V76.37ZM60.1408 77.15C59.8008 77.15 59.5258 77.085 59.3158 76.955C59.1158 76.815 59.0158 76.62 59.0158 76.37V69.53C59.0158 69.28 59.1158 69.09 59.3158 68.96C59.5258 68.82 59.8008 68.75 60.1408 68.75C60.4808 68.75 60.7508 68.82 60.9508 68.96C61.1608 69.09 61.2658 69.28 61.2658 69.53V70.4C61.5558 69.86 61.9208 69.44 62.3608 69.14C62.8008 68.83 63.3208 68.675 63.9208 68.675C64.2708 68.675 64.5258 68.77 64.6858 68.96C64.8558 69.14 64.9408 69.4 64.9408 69.74C64.9408 70.08 64.8558 70.345 64.6858 70.535C64.5258 70.715 64.2708 70.805 63.9208 70.805C63.4708 70.805 63.0808 70.87 62.7508 71C62.4208 71.13 62.1458 71.3 61.9258 71.51C61.7058 71.72 61.5408 71.96 61.4308 72.23C61.3208 72.49 61.2658 72.75 61.2658 73.01V76.37C61.2658 76.62 61.1608 76.815 60.9508 76.955C60.7508 77.085 60.4808 77.15 60.1408 77.15ZM82.517 65.9C82.777 65.9 82.982 65.98 83.132 66.14C83.292 66.3 83.372 66.52 83.372 66.8C83.372 67.07 83.292 67.29 83.132 67.46C82.982 67.62 82.777 67.7 82.517 67.7H78.392V70.715H81.977C82.237 70.715 82.442 70.795 82.592 70.955C82.752 71.115 82.832 71.335 82.832 71.615C82.832 71.885 82.752 72.105 82.592 72.275C82.442 72.435 82.237 72.515 81.977 72.515H78.392V76.37C78.392 76.62 78.287 76.815 78.077 76.955C77.877 77.085 77.607 77.15 77.267 77.15C76.927 77.15 76.652 77.08 76.442 76.94C76.242 76.8 76.142 76.6 76.142 76.34V67.175C76.142 66.325 76.567 65.9 77.417 65.9H82.517ZM85.8488 77.15C85.5088 77.15 85.2338 77.085 85.0238 76.955C84.8238 76.815 84.7238 76.62 84.7238 76.37V69.53C84.7238 69.28 84.8238 69.09 85.0238 68.96C85.2338 68.82 85.5088 68.75 85.8488 68.75C86.1888 68.75 86.4588 68.82 86.6588 68.96C86.8688 69.09 86.9738 69.28 86.9738 69.53V70.4C87.2638 69.86 87.6288 69.44 88.0688 69.14C88.5088 68.83 89.0288 68.675 89.6288 68.675C89.9788 68.675 90.2338 68.77 90.3938 68.96C90.5638 69.14 90.6488 69.4 90.6488 69.74C90.6488 70.08 90.5638 70.345 90.3938 70.535C90.2338 70.715 89.9788 70.805 89.6288 70.805C89.1788 70.805 88.7888 70.87 88.4588 71C88.1288 71.13 87.8538 71.3 87.6338 71.51C87.4138 71.72 87.2488 71.96 87.1388 72.23C87.0288 72.49 86.9738 72.75 86.9738 73.01V76.37C86.9738 76.62 86.8688 76.815 86.6588 76.955C86.4588 77.085 86.1888 77.15 85.8488 77.15ZM95.3618 75.455C95.7218 75.455 96.0568 75.425 96.3668 75.365C96.6768 75.295 96.9468 75.205 97.1768 75.095C97.4568 74.955 97.7118 74.92 97.9418 74.99C98.1718 75.05 98.3418 75.2 98.4518 75.44C98.5618 75.68 98.5868 75.915 98.5268 76.145C98.4768 76.365 98.3068 76.545 98.0168 76.685C97.6668 76.855 97.2568 76.985 96.7868 77.075C96.3268 77.175 95.8268 77.225 95.2868 77.225C94.6768 77.225 94.1118 77.125 93.5918 76.925C93.0818 76.715 92.6418 76.425 92.2718 76.055C91.9018 75.685 91.6118 75.24 91.4018 74.72C91.2018 74.19 91.1018 73.6 91.1018 72.95C91.1018 72.31 91.2068 71.725 91.4168 71.195C91.6268 70.665 91.9118 70.215 92.2718 69.845C92.6418 69.475 93.0768 69.19 93.5768 68.99C94.0768 68.78 94.6118 68.675 95.1818 68.675C95.7518 68.675 96.2668 68.775 96.7268 68.975C97.1968 69.165 97.5968 69.425 97.9268 69.755C98.2568 70.075 98.5118 70.445 98.6918 70.865C98.8718 71.275 98.9618 71.705 98.9618 72.155C98.9618 72.715 98.8268 73.135 98.5568 73.415C98.2968 73.685 97.8818 73.82 97.3118 73.82H93.3668C93.5968 74.91 94.2618 75.455 95.3618 75.455ZM96.5018 72.2C96.8418 72.2 96.9768 72.025 96.9068 71.675C96.8268 71.325 96.6468 71.035 96.3668 70.805C96.0868 70.565 95.6918 70.445 95.1818 70.445C94.7018 70.445 94.3018 70.595 93.9818 70.895C93.6618 71.185 93.4518 71.62 93.3518 72.2H96.5018ZM101.236 74.99C101.556 75.11 101.876 75.215 102.196 75.305C102.516 75.385 102.836 75.425 103.156 75.425C103.576 75.425 103.896 75.365 104.116 75.245C104.346 75.125 104.461 74.94 104.461 74.69C104.461 74.55 104.421 74.43 104.341 74.33C104.261 74.23 104.151 74.145 104.011 74.075C103.871 73.995 103.706 73.925 103.516 73.865C103.336 73.805 103.136 73.74 102.916 73.67C102.466 73.54 102.061 73.41 101.701 73.28C101.351 73.14 101.051 72.98 100.801 72.8C100.561 72.61 100.371 72.385 100.231 72.125C100.101 71.855 100.036 71.52 100.036 71.12C100.036 70.78 100.101 70.46 100.231 70.16C100.371 69.86 100.571 69.6 100.831 69.38C101.091 69.16 101.411 68.99 101.791 68.87C102.181 68.74 102.631 68.675 103.141 68.675C103.701 68.675 104.211 68.725 104.671 68.825C105.131 68.915 105.526 69.045 105.856 69.215C106.116 69.345 106.281 69.525 106.351 69.755C106.431 69.975 106.416 70.205 106.306 70.445C106.196 70.675 106.036 70.83 105.826 70.91C105.616 70.98 105.396 70.965 105.166 70.865C104.936 70.755 104.676 70.665 104.386 70.595C104.106 70.515 103.816 70.475 103.516 70.475C103.066 70.475 102.741 70.54 102.541 70.67C102.351 70.8 102.256 70.975 102.256 71.195C102.256 71.325 102.286 71.43 102.346 71.51C102.406 71.59 102.496 71.66 102.616 71.72C102.736 71.78 102.886 71.84 103.066 71.9C103.256 71.95 103.476 72.015 103.726 72.095C104.106 72.215 104.471 72.345 104.821 72.485C105.181 72.615 105.496 72.78 105.766 72.98C106.046 73.17 106.266 73.405 106.426 73.685C106.596 73.965 106.681 74.305 106.681 74.705C106.681 75.065 106.611 75.4 106.471 75.71C106.341 76.02 106.141 76.29 105.871 76.52C105.601 76.74 105.266 76.91 104.866 77.03C104.466 77.16 103.996 77.225 103.456 77.225C102.916 77.225 102.386 77.18 101.866 77.09C101.346 77 100.891 76.86 100.501 76.67C100.251 76.56 100.086 76.4 100.006 76.19C99.9263 75.97 99.9413 75.73 100.051 75.47C100.151 75.23 100.306 75.065 100.516 74.975C100.736 74.875 100.976 74.88 101.236 74.99ZM110.442 76.37C110.442 76.62 110.337 76.815 110.127 76.955C109.927 77.085 109.657 77.15 109.317 77.15C108.977 77.15 108.702 77.085 108.492 76.955C108.292 76.815 108.192 76.62 108.192 76.37V66.155C108.192 65.905 108.292 65.715 108.492 65.585C108.702 65.445 108.977 65.375 109.317 65.375C109.657 65.375 109.927 65.445 110.127 65.585C110.337 65.715 110.442 65.905 110.442 66.155V69.395C110.692 69.165 110.997 68.99 111.357 68.87C111.727 68.74 112.127 68.675 112.557 68.675C113.677 68.675 114.507 68.945 115.047 69.485C115.597 70.015 115.872 70.74 115.872 71.66V76.37C115.872 76.62 115.767 76.815 115.557 76.955C115.357 77.085 115.087 77.15 114.747 77.15C114.407 77.15 114.132 77.085 113.922 76.955C113.722 76.815 113.622 76.62 113.622 76.37V71.885C113.622 71.465 113.487 71.125 113.217 70.865C112.957 70.605 112.562 70.475 112.032 70.475C111.502 70.475 111.102 70.61 110.832 70.88C110.572 71.14 110.442 71.48 110.442 71.9V76.37ZM133.904 65.9C134.164 65.9 134.369 65.98 134.519 66.14C134.679 66.3 134.759 66.52 134.759 66.8C134.759 67.07 134.679 67.29 134.519 67.46C134.369 67.62 134.164 67.7 133.904 67.7H129.779V70.715H133.364C133.624 70.715 133.829 70.795 133.979 70.955C134.139 71.115 134.219 71.335 134.219 71.615C134.219 71.885 134.139 72.105 133.979 72.275C133.829 72.435 133.624 72.515 133.364 72.515H129.779V76.37C129.779 76.62 129.674 76.815 129.464 76.955C129.264 77.085 128.994 77.15 128.654 77.15C128.314 77.15 128.039 77.08 127.829 76.94C127.629 76.8 127.529 76.6 127.529 76.34V67.175C127.529 66.325 127.954 65.9 128.804 65.9H133.904ZM137.236 77.15C136.896 77.15 136.621 77.085 136.411 76.955C136.211 76.815 136.111 76.62 136.111 76.37V69.53C136.111 69.28 136.211 69.09 136.411 68.96C136.621 68.82 136.896 68.75 137.236 68.75C137.576 68.75 137.846 68.82 138.046 68.96C138.256 69.09 138.361 69.28 138.361 69.53V70.4C138.651 69.86 139.016 69.44 139.456 69.14C139.896 68.83 140.416 68.675 141.016 68.675C141.366 68.675 141.621 68.77 141.781 68.96C141.951 69.14 142.036 69.4 142.036 69.74C142.036 70.08 141.951 70.345 141.781 70.535C141.621 70.715 141.366 70.805 141.016 70.805C140.566 70.805 140.176 70.87 139.846 71C139.516 71.13 139.241 71.3 139.021 71.51C138.801 71.72 138.636 71.96 138.526 72.23C138.416 72.49 138.361 72.75 138.361 73.01V76.37C138.361 76.62 138.256 76.815 138.046 76.955C137.846 77.085 137.576 77.15 137.236 77.15ZM142.988 66.575C142.988 66.195 143.113 65.875 143.363 65.615C143.613 65.355 143.953 65.225 144.383 65.225C144.813 65.225 145.153 65.355 145.403 65.615C145.653 65.875 145.778 66.195 145.778 66.575C145.778 66.955 145.653 67.275 145.403 67.535C145.153 67.795 144.813 67.925 144.383 67.925C143.953 67.925 143.613 67.795 143.363 67.535C143.113 67.275 142.988 66.955 142.988 66.575ZM144.383 77.15C144.043 77.15 143.768 77.085 143.558 76.955C143.358 76.815 143.258 76.62 143.258 76.37V69.905C143.258 69.655 143.358 69.465 143.558 69.335C143.768 69.195 144.043 69.125 144.383 69.125C144.723 69.125 144.993 69.195 145.193 69.335C145.403 69.465 145.508 69.655 145.508 69.905V76.37C145.508 76.62 145.403 76.815 145.193 76.955C144.993 77.085 144.723 77.15 144.383 77.15ZM155.756 76.37C155.756 76.62 155.651 76.815 155.441 76.955C155.241 77.085 154.971 77.15 154.631 77.15C154.291 77.15 154.016 77.085 153.806 76.955C153.606 76.815 153.506 76.62 153.506 76.37V76.13C153.306 76.48 152.991 76.75 152.561 76.94C152.131 77.13 151.616 77.225 151.016 77.225C150.506 77.225 150.016 77.13 149.546 76.94C149.086 76.75 148.676 76.475 148.316 76.115C147.966 75.745 147.686 75.295 147.476 74.765C147.276 74.235 147.176 73.63 147.176 72.95C147.176 72.27 147.276 71.665 147.476 71.135C147.686 70.605 147.971 70.16 148.331 69.8C148.691 69.43 149.111 69.15 149.591 68.96C150.081 68.77 150.606 68.675 151.166 68.675C151.686 68.675 152.146 68.76 152.546 68.93C152.956 69.1 153.276 69.3 153.506 69.53V66.155C153.506 65.905 153.606 65.715 153.806 65.585C154.016 65.445 154.291 65.375 154.631 65.375C154.971 65.375 155.241 65.445 155.441 65.585C155.651 65.715 155.756 65.905 155.756 66.155V76.37ZM153.506 72.95C153.506 72.17 153.311 71.565 152.921 71.135C152.531 70.695 152.046 70.475 151.466 70.475C150.886 70.475 150.401 70.695 150.011 71.135C149.621 71.565 149.426 72.17 149.426 72.95C149.426 73.73 149.621 74.34 150.011 74.78C150.401 75.21 150.886 75.425 151.466 75.425C152.046 75.425 152.531 75.215 152.921 74.795C153.311 74.375 153.506 73.76 153.506 72.95ZM165.992 76.475C165.992 77.795 165.637 78.8 164.927 79.49C164.227 80.18 163.092 80.525 161.522 80.525C160.692 80.525 159.927 80.375 159.227 80.075C158.907 79.935 158.707 79.75 158.627 79.52C158.557 79.29 158.577 79.045 158.687 78.785C158.787 78.545 158.937 78.375 159.137 78.275C159.337 78.185 159.567 78.2 159.827 78.32C160.097 78.45 160.362 78.55 160.622 78.62C160.892 78.69 161.192 78.725 161.522 78.725C162.242 78.725 162.787 78.585 163.157 78.305C163.537 78.035 163.727 77.625 163.727 77.075V76.115C163.517 76.385 163.212 76.605 162.812 76.775C162.412 76.935 161.972 77.015 161.492 77.015C160.962 77.015 160.457 76.93 159.977 76.76C159.507 76.59 159.092 76.335 158.732 75.995C158.372 75.645 158.087 75.215 157.877 74.705C157.667 74.185 157.562 73.58 157.562 72.89C157.562 72.2 157.667 71.595 157.877 71.075C158.087 70.545 158.372 70.105 158.732 69.755C159.092 69.395 159.507 69.125 159.977 68.945C160.457 68.765 160.957 68.675 161.477 68.675C162.007 68.675 162.467 68.77 162.857 68.96C163.247 69.15 163.542 69.42 163.742 69.77V69.53C163.742 69.28 163.842 69.09 164.042 68.96C164.252 68.82 164.527 68.75 164.867 68.75C165.207 68.75 165.477 68.82 165.677 68.96C165.887 69.09 165.992 69.28 165.992 69.53V76.475ZM163.742 72.89C163.742 72.14 163.557 71.55 163.187 71.12C162.827 70.69 162.357 70.475 161.777 70.475C161.197 70.475 160.722 70.69 160.352 71.12C159.992 71.55 159.812 72.14 159.812 72.89C159.812 73.64 159.992 74.23 160.352 74.66C160.722 75.09 161.197 75.305 161.777 75.305C162.357 75.305 162.827 75.09 163.187 74.66C163.557 74.23 163.742 73.64 163.742 72.89ZM171.9 75.455C172.26 75.455 172.595 75.425 172.905 75.365C173.215 75.295 173.485 75.205 173.715 75.095C173.995 74.955 174.25 74.92 174.48 74.99C174.71 75.05 174.88 75.2 174.99 75.44C175.1 75.68 175.125 75.915 175.065 76.145C175.015 76.365 174.845 76.545 174.555 76.685C174.205 76.855 173.795 76.985 173.325 77.075C172.865 77.175 172.365 77.225 171.825 77.225C171.215 77.225 170.65 77.125 170.13 76.925C169.62 76.715 169.18 76.425 168.81 76.055C168.44 75.685 168.15 75.24 167.94 74.72C167.74 74.19 167.64 73.6 167.64 72.95C167.64 72.31 167.745 71.725 167.955 71.195C168.165 70.665 168.45 70.215 168.81 69.845C169.18 69.475 169.615 69.19 170.115 68.99C170.615 68.78 171.15 68.675 171.72 68.675C172.29 68.675 172.805 68.775 173.265 68.975C173.735 69.165 174.135 69.425 174.465 69.755C174.795 70.075 175.05 70.445 175.23 70.865C175.41 71.275 175.5 71.705 175.5 72.155C175.5 72.715 175.365 73.135 175.095 73.415C174.835 73.685 174.42 73.82 173.85 73.82H169.905C170.135 74.91 170.8 75.455 171.9 75.455ZM173.04 72.2C173.38 72.2 173.515 72.025 173.445 71.675C173.365 71.325 173.185 71.035 172.905 70.805C172.625 70.565 172.23 70.445 171.72 70.445C171.24 70.445 170.84 70.595 170.52 70.895C170.2 71.185 169.99 71.62 169.89 72.2H173.04Z" fill="#2E2A2A"/>
<defs>
<filter id="filter0_d_94_171" x="29.1758" y="0.375" width="156.89" height="66.75" filterUnits="userSpaceOnUse" color-interpolation-filters="sRGB">
<feFlood flood-opacity="0" result="BackgroundImageFix"/>
<feColorMatrix in="SourceAlpha" type="matrix" values="0 0 0 0 0 0 0 0 0 0 0 0 0 0 0 0 0 0 127 0" result="hardAlpha"/>
<feOffset dx="5" dy="5"/>
<feGaussianBlur stdDeviation="2"/>
<feComposite in2="hardAlpha" operator="out"/>
<feColorMatrix type="matrix" values="0 0 0 0 0 0 0 0 0 0 0 0 0 0 0 0 0 0 0.25 0"/>
<feBlend mode="normal" in2="BackgroundImageFix" result="effect1_dropShadow_94_171"/>
<feBlend mode="normal" in="SourceGraphic" in2="effect1_dropShadow_94_171" result="shape"/>
</filter>
<linearGradient id="paint0_linear_94_171" x1="102" y1="7" x2="102" y2="56" gradientUnits="userSpaceOnUse">
<stop stop-color="#44A5FF"/>
<stop offset="0.166667" stop-color="#4BBEFE" stop-opacity="0.934215"/>
<stop offset="0.427083" stop-color="#4EE5FA" stop-opacity="0.942708"/>
<stop offset="1" stop-color="#59FCDF" stop-opacity="0.7"/>
</linearGradient>
</defs>
</svg>
